<svg xmlns="http://www.w3.org/2000/svg" viewBox="0 0 16 16" height="24" width="24">
  <path d="M7.593290625 9.13883125c0.16559375 -0.16559375 0.450784375 -0.16559375 0.616375 0l2.361240625 2.361240625c0.43545 0.43545 1.015028125 0.674640625 1.6283375 0.674640625h0.463046875l-2.977615625 2.977615625c-0.9291625 0.90463125 -2.437903125 0.90463125 -3.367065625 0l-2.989884375 -2.986815625h0.285190625c0.613309375 0 1.192884375 -0.239190625 1.628334375 -0.674640625l2.352040625 -2.352040625Zm0.616375 -2.256978125c-0.19625625 0.168659375 -0.447715625 0.171725 -0.616375 0L5.24125 4.5298125c-0.43545 -0.46305 -1.015025 -0.674640625 -1.628334375 -0.674640625h-0.285190625l2.986815625 -2.988040625c0.93223125 -0.930575 2.440971875 -0.930575 3.370134375 0l2.980684375 2.978840625h-0.466115625c-0.613309375 0 -1.1928875 0.239190625 -1.6283375 0.674640625l-2.361240625 2.361240625Zm-4.59675 -2.336709375c0.42318125 0 0.812634375 0.171728125 1.1376875 0.47225l2.352040625 2.352040625c0.220790625 0.193190625 0.509046875 0.3311875 0.80036875 0.3311875 0.28825625 0 0.576509375 -0.137996875 0.797303125 -0.3311875l2.3612375 -2.361240625c0.300521875 -0.29745625 0.71450625 -0.46918125 1.137690625 -0.46918125h1.1560875l1.787796875 1.787796875c0.9291625 0.9291625 0.9291625 2.437903125 0 3.367065625l-1.787796875 1.787796875h-1.1560875c-0.423184375 0 -0.83716875 -0.171728125 -1.137690625 -0.472246875l-2.3612375 -2.361240625c-0.42625 -0.42625 -1.171421875 -0.42625 -1.597671875 0.003065625l-2.352040625 2.348975c-0.325053125 0.300521875 -0.71450625 0.472246875 -1.1376875 0.472246875H2.637140625L0.85793125 9.693875c-0.930575 -0.9291625 -0.930575 -2.437903125 0 -3.367065625l1.779209375 -1.781665625h0.975775Z" fill="#32BCAD" stroke-width="0.0313"></path>
</svg>